<svg xmlns="http://www.w3.org/2000/svg" width="376" height="265" viewBox="0 0 376 265" version="1.1"><path d="M 109.734 166.059 C 100.573 168.288, 92.955 174.416, 88.888 182.828 C 85.697 189.429, 85.716 200.610, 88.930 207.261 C 91.850 213.304, 99.643 220.350, 105.684 222.408 C 111.399 224.355, 120.143 224.396, 125.468 222.499 C 128.914 221.272, 129.649 221.278, 131.047 222.543 C 132.181 223.569, 135.075 224, 140.829 224 C 145.323 224, 149 223.734, 149 223.409 C 149 223.085, 146.930 220.396, 144.399 217.434 L 139.798 212.048 142.149 207.274 C 144.025 203.465, 144.499 200.883, 144.496 194.500 C 144.492 187.507, 144.118 185.825, 141.525 181.136 C 135.194 169.691, 121.500 163.196, 109.734 166.059 M 42.235 194.750 L 42.500 223.500 61.250 223.772 L 80 224.044 80 217.022 L 80 210 68 210 L 56 210 56 206.039 L 56 202.078 64.750 201.789 L 73.500 201.500 73.796 194.750 L 74.091 188 65.046 188 L 56 188 56 184 L 56 180 68 180 L 80 180 80 173 L 80 166 60.985 166 L 41.969 166 42.235 194.750 M 155 186.275 C 155 206.511, 155.018 206.676, 157.750 212.064 C 161.565 219.588, 166.754 223.050, 175.236 223.731 C 182.977 224.352, 187.840 222.958, 192.645 218.739 C 199.511 212.710, 200 210.603, 200 187.040 L 200 166 193.559 166 L 187.119 166 186.809 185.480 L 186.500 204.959 183.777 207.680 C 180.283 211.171, 174.947 211.391, 171.728 208.175 C 169.613 206.063, 169.475 204.948, 169 186.225 L 168.500 166.500 161.750 166.204 L 155 165.909 155 186.275 M 215 195.046 L 215 224.091 221.750 223.796 L 228.500 223.500 228.765 194.750 L 229.031 166 222.015 166 L 215 166 215 195.046 M 239.204 172.750 L 239.500 179.500 246.731 179.793 L 253.961 180.087 254.231 201.793 L 254.500 223.500 261 223.500 L 267.500 223.500 267.769 201.793 L 268.039 180.087 275.269 179.793 L 282.500 179.500 282.796 172.750 L 283.091 166 261 166 L 238.909 166 239.204 172.750 M 287 166.758 C 287 167.176, 291.725 174.034, 297.500 182 L 308 196.483 308 210.242 L 308 224 314.500 224 L 321 224 321 210.332 L 321 196.665 329.680 184.582 C 334.455 177.937, 339.458 171.037, 340.799 169.250 L 343.237 166 334.794 166 L 326.350 166 320.623 174 C 317.472 178.400, 314.717 182, 314.500 182 C 314.283 182, 311.528 178.400, 308.377 174 L 302.650 166 294.825 166 C 290.521 166, 287 166.341, 287 166.758 M 110.001 180.123 C 98.961 184.526, 96.471 199.719, 105.611 206.908 C 108.674 209.318, 115.529 211.395, 117.687 210.566 C 118.801 210.139, 117.923 208.584, 114.131 204.261 L 109.098 198.522 113.799 194.306 C 116.385 191.987, 118.812 190.069, 119.192 190.045 C 119.573 190.020, 122.007 192.458, 124.600 195.462 C 127.193 198.466, 129.694 200.689, 130.158 200.403 C 131.896 199.328, 131.045 189.809, 128.899 186.337 C 125.188 180.332, 116.577 177.501, 110.001 180.123" stroke="none" fill="#241d1d" fill-rule="evenodd"/><path d="M 134.500 58.468 L 92.500 87.891 92 78.695 L 91.500 69.500 67 69.500 L 42.500 69.500 42.238 108.171 L 41.977 146.841 66.238 147.196 C 80.082 147.399, 91.359 147.148, 92.500 146.613 C 93.600 146.097, 113.124 132.674, 135.886 116.783 C 158.648 100.892, 177.817 88.100, 178.485 88.356 C 179.152 88.612, 197.935 101.902, 220.225 117.888 L 260.751 146.955 301.376 147.228 C 323.720 147.377, 342.001 147.202, 342 146.837 C 342 145.863, 180.103 29.827, 178.155 29.404 C 177.206 29.198, 158.572 41.604, 134.500 58.468" stroke="none" fill="#a42c2c" fill-rule="evenodd"/></svg>